<?xml version="1.0" encoding="utf-8"?>
<!-- Generator: Adobe Illustrator 25.2.2, SVG Export Plug-In . SVG Version: 6.00 Build 0)  -->
<svg version="1.1" id="레이어_1" xmlns="http://www.w3.org/2000/svg" xmlns:xlink="http://www.w3.org/1999/xlink" width="90" height="90" 
 style="enable-background:new 0 0 510.24 127.56;" xml:space="preserve">
 <!-- viewBox="0 0 425 289" -->
<style type="text/css">
	.st0{fill:url(#SVGID_1_);}
</style>
<g>
	<g transform="translate(-21, -19)">
		<radialGradient id="SVGID_1_" cx="65.7749" cy="64.0368" r="45.0391" gradientUnits="userSpaceOnUse">
			<stop  offset="0" style="stop-color:#F5BB1F"/>
			<stop  offset="0.2382" style="stop-color:#F4B820"/>
			<stop  offset="0.4851" style="stop-color:#F2AF22"/>
			<stop  offset="0.7358" style="stop-color:#EF9F24"/>
			<stop  offset="0.9879" style="stop-color:#EC8826"/>
			<stop  offset="1" style="stop-color:#EB8726"/>
		</radialGradient>
		<path class="st0" d="M106.32,44.55c-4.33-3.4-11.16-5.97-21.98-5.58c-10.39-0.03-19.25,5.41-22.56,12.65l-15.5-10.07
			c-3.89-2.53-6.03-4.99-6.47-8.63c-0.65-5.37,3.31-7.99,7.87-10.28c5.5-2.39,11.56-3.72,17.94-3.72
			C83.56,18.92,99.05,29.39,106.32,44.55z M21.05,57.04C22.17,49.83,25,43.2,29.1,37.55c-0.19,6.22,2.93,11.45,8.92,15.43
			L54.2,63.72c4.99,3.31,7.43,5.82,7.42,9.59c0.01,5.82-4.75,10.44-12.83,10.44C18.49,83.74,20.52,60.74,21.05,57.04z M23.73,80.79
			c4.62,4.28,12.07,7.96,24.06,7.96c12.17,0,20.47-5.52,23.39-14.17l14.31,9.49c4.99,3.31,7.43,5.82,7.42,9.59
			c0,4.31-2.31,8.28-7.02,10.69c-6.09,3.07-12.97,4.81-20.26,4.81C46.62,109.15,30.38,97.41,23.73,80.79z M103.59,88.39
			c0.25-6.72-2.92-11.48-8.33-15l-17.7-11.5c-3.89-2.53-6.69-4.97-6.47-8.63c0.22-4.98,6.46-9.66,15.06-9.66
			c0,0,24.58-0.89,24.58,20.43C110.74,73.01,108.11,81.36,103.59,88.39z"/>
	</g>
</g>
</svg>
